{
	"asset":{
		"generator":"Khronos glTF Blender I/O v4.1.63",
		"version":"2.0"
	},
	"extensionsUsed":[
		"KHR_materials_specular",
		"KHR_materials_ior"
	],
	"scene":0,
	"scenes":[
		{
			"name":"Scene",
			"nodes":[
				2
			]
		}
	],
	"nodes":[
		{
			"mesh":0,
			"name":"judge_reaper_body.2"
		},
		{
			"mesh":1,
			"name":"judge_reaper_scythe.1"
		},
		{
			"children":[
				0,
				1
			],
			"name":"RootNode.0",
			"scale":[
				0.009999999776482582,
				0.009999999776482582,
				0.009999999776482582
			]
		}
	],
	"materials":[
		{
			"alphaCutoff":0.5,
			"alphaMode":"MASK",
			"doubleSided":true,
			"extensions":{
				"KHR_materials_specular":{
					"specularColorTexture":{
						"index":0
					}
				},
				"KHR_materials_ior":{
					"ior":1000
				}
			},
			"name":"Material_1",
			"normalTexture":{
				"index":1
			},
			"occlusionTexture":{
				"index":2
			},
			"pbrMetallicRoughness":{
				"baseColorTexture":{
					"index":3
				},
				"metallicFactor":0,
				"metallicRoughnessTexture":{
					"index":2
				}
			}
		},
		{
			"alphaCutoff":0.5,
			"alphaMode":"MASK",
			"doubleSided":true,
			"extensions":{
				"KHR_materials_specular":{
					"specularColorTexture":{
						"index":4
					}
				},
				"KHR_materials_ior":{
					"ior":1000
				}
			},
			"name":"Material_0",
			"normalTexture":{
				"index":5
			},
			"occlusionTexture":{
				"index":6
			},
			"pbrMetallicRoughness":{
				"baseColorTexture":{
					"index":7
				},
				"metallicFactor":0,
				"metallicRoughnessTexture":{
					"index":6
				}
			}
		}
	],
	"meshes":[
		{
			"name":"Mesh_1",
			"primitives":[
				{
					"attributes":{
						"POSITION":0,
						"NORMAL":1,
						"TEXCOORD_0":2,
						"TANGENT":3
					},
					"indices":4,
					"material":0
				}
			]
		},
		{
			"name":"Mesh_0",
			"primitives":[
				{
					"attributes":{
						"POSITION":5,
						"NORMAL":6,
						"TEXCOORD_0":7,
						"TANGENT":8
					},
					"indices":9,
					"material":1
				}
			]
		}
	],
	"textures":[
		{
			"sampler":0,
			"source":0
		},
		{
			"sampler":0,
			"source":1
		},
		{
			"sampler":0,
			"source":2
		},
		{
			"sampler":0,
			"source":3
		},
		{
			"sampler":0,
			"source":4
		},
		{
			"sampler":0,
			"source":5
		},
		{
			"sampler":0,
			"source":6
		},
		{
			"sampler":0,
			"source":7
		}
	],
	"images":[
		{
			"mimeType":"image/png",
			"name":"Image_5",
			"uri":"Image_5.png"
		},
		{
			"mimeType":"image/png",
			"name":"Image_6",
			"uri":"Image_6.png"
		},
		{
			"mimeType":"image/png",
			"name":"Image_7-Image_5",
			"uri":"Image_7-Image_5.png"
		},
		{
			"mimeType":"image/png",
			"name":"Image_4",
			"uri":"Image_4.png"
		},
		{
			"mimeType":"image/png",
			"name":"Image_1",
			"uri":"Image_1.png"
		},
		{
			"mimeType":"image/png",
			"name":"Image_2",
			"uri":"Image_2.png"
		},
		{
			"mimeType":"image/png",
			"name":"Image_3-Image_1",
			"uri":"Image_3-Image_1.png"
		},
		{
			"mimeType":"image/png",
			"name":"Image_0",
			"uri":"Image_0.png"
		}
	],
	"accessors":[
		{
			"bufferView":0,
			"componentType":5126,
			"count":13390,
			"max":[
				2.6391220092773438,
				7.3472137451171875,
				3.918670654296875
			],
			"min":[
				-1.38555908203125,
				-0.21279144287109375,
				-2.829437255859375
			],
			"type":"VEC3"
		},
		{
			"bufferView":1,
			"componentType":5126,
			"count":13390,
			"type":"VEC3"
		},
		{
			"bufferView":2,
			"componentType":5126,
			"count":13390,
			"type":"VEC2"
		},
		{
			"bufferView":3,
			"componentType":5126,
			"count":13390,
			"type":"VEC4"
		},
		{
			"bufferView":4,
			"componentType":5123,
			"count":58653,
			"type":"SCALAR"
		},
		{
			"bufferView":5,
			"componentType":5126,
			"count":1029,
			"max":[
				4.0970001220703125,
				4.756965637207031,
				-0.086334228515625
			],
			"min":[
				-3.9860916137695312,
				1.722442626953125,
				-4.176200866699219
			],
			"type":"VEC3"
		},
		{
			"bufferView":6,
			"componentType":5126,
			"count":1029,
			"type":"VEC3"
		},
		{
			"bufferView":7,
			"componentType":5126,
			"count":1029,
			"type":"VEC2"
		},
		{
			"bufferView":8,
			"componentType":5126,
			"count":1029,
			"type":"VEC4"
		},
		{
			"bufferView":9,
			"componentType":5123,
			"count":4458,
			"type":"SCALAR"
		}
	],
	"bufferViews":[
		{
			"buffer":0,
			"byteLength":160680,
			"byteOffset":0,
			"target":34962
		},
		{
			"buffer":0,
			"byteLength":160680,
			"byteOffset":160680,
			"target":34962
		},
		{
			"buffer":0,
			"byteLength":107120,
			"byteOffset":321360,
			"target":34962
		},
		{
			"buffer":0,
			"byteLength":214240,
			"byteOffset":428480,
			"target":34962
		},
		{
			"buffer":0,
			"byteLength":117306,
			"byteOffset":642720,
			"target":34963
		},
		{
			"buffer":0,
			"byteLength":12348,
			"byteOffset":760028,
			"target":34962
		},
		{
			"buffer":0,
			"byteLength":12348,
			"byteOffset":772376,
			"target":34962
		},
		{
			"buffer":0,
			"byteLength":8232,
			"byteOffset":784724,
			"target":34962
		},
		{
			"buffer":0,
			"byteLength":16464,
			"byteOffset":792956,
			"target":34962
		},
		{
			"buffer":0,
			"byteLength":8916,
			"byteOffset":809420,
			"target":34963
		}
	],
	"samplers":[
		{
			"magFilter":9729,
			"minFilter":9987
		}
	],
	"buffers":[
		{
			"byteLength":818336,
			"uri":"ghost.bin"
		}
	]
}
